<svg width="146" height="114" viewBox="0 0 146 114" fill="none" xmlns="http://www.w3.org/2000/svg">
<path fill-rule="evenodd" clip-rule="evenodd" d="M3.47203 67.3298C3.16188 65.6001 3 63.819 3 62C3 45.4315 16.4315 32 33 32C33 15.4315 46.4315 2 63 2C73.6226 2 82.9556 7.52095 88.2863 15.8499C92.6336 13.3986 97.6535 12 103 12C119.569 12 133 25.4315 133 42C133 44.8854 132.593 47.6756 131.832 50.3163C138.898 56.5636 143 64.0081 143 72C143 94.0914 111.66 112 73 112C34.3401 112 3 94.0914 3 72C3 70.4202 3.16027 68.8618 3.47203 67.3298Z" fill="#52D689"/>
<path d="M3.47203 67.3298L5.43186 67.7286L5.50818 67.3536L5.44063 66.9769L3.47203 67.3298ZM33 32V34H35V32H33ZM88.2863 15.8499L86.6018 16.9281L87.6213 18.521L89.2687 17.5921L88.2863 15.8499ZM131.832 50.3163L129.91 49.763L129.561 50.9775L130.508 51.8147L131.832 50.3163ZM5.44063 66.9769C5.15128 65.3631 5 63.7001 5 62H1C1 63.9379 1.17248 65.8371 1.50342 67.6828L5.44063 66.9769ZM5 62C5 46.536 17.536 34 33 34V30C15.3269 30 1 44.3269 1 62H5ZM35 32C35 16.536 47.536 4 63 4V0C45.3269 0 31 14.3269 31 32H35ZM63 4C72.9123 4 81.6232 9.14919 86.6018 16.9281L89.9709 14.7718C84.2881 5.89271 74.3329 0 63 0V4ZM89.2687 17.5921C93.324 15.3054 98.0065 14 103 14V10C97.3004 10 91.9433 11.4918 87.304 14.1078L89.2687 17.5921ZM103 14C118.464 14 131 26.536 131 42H135C135 24.3269 120.673 10 103 10V14ZM131 42C131 44.6963 130.619 47.3003 129.91 49.763L133.754 50.8697C134.566 48.0509 135 45.0744 135 42H131ZM145 72C145 63.2727 140.514 55.3222 133.157 48.818L130.508 51.8147C137.283 57.8049 141 64.7434 141 72H145ZM73 114C92.6135 114 110.469 109.461 123.49 102.021C136.454 94.6124 145 84.0732 145 72H141C141 82.0182 133.876 91.479 121.505 98.5478C109.191 105.584 92.0464 110 73 110V114ZM1 72C1 84.0732 9.54567 94.6124 22.5102 102.021C35.5314 109.461 53.3865 114 73 114V110C53.9536 110 36.8087 105.584 24.4948 98.5478C12.1244 91.479 5 82.0182 5 72H1ZM1.51219 66.931C1.17415 68.5922 1 70.2841 1 72H5C5 70.5563 5.14639 69.1315 5.43186 67.7286L1.51219 66.931Z" fill="#1D9C53"/>
<path d="M70 70H90" stroke="#1D9C53" stroke-width="2"/>
<path d="M90 70V90" stroke="#1D9C53" stroke-width="2"/>
<path d="M90 94C92.2091 94 94 92.2091 94 90C94 87.7909 92.2091 86 90 86C87.7909 86 86 87.7909 86 90C86 92.2091 87.7909 94 90 94Z" fill="#1D9C53"/>
<path d="M50 50H70" stroke="#1D9C53" stroke-width="2"/>
<path d="M70 50V30" stroke="#1D9C53" stroke-width="2"/>
<path d="M70 34C72.2091 34 74 32.2091 74 30C74 27.7909 72.2091 26 70 26C67.7909 26 66 27.7909 66 30C66 32.2091 67.7909 34 70 34Z" fill="#1D9C53"/>
<path d="M10 80H30" stroke="#1D9C53" stroke-width="2"/>
<path d="M30 80V100" stroke="#1D9C53" stroke-width="2"/>
<path d="M30 104C32.2091 104 34 102.209 34 100C34 97.7909 32.2091 96 30 96C27.7909 96 26 97.7909 26 100C26 102.209 27.7909 104 30 104Z" fill="#1D9C53"/>
</svg>
